<?xml version="1.0" ?><!DOCTYPE svg  PUBLIC '-//W3C//DTD SVG 1.1//EN'  'http://www.w3.org/Graphics/SVG/1.1/DTD/svg11.dtd'><svg enable-background="new 0 0 512 512" height="512px" id="Layer_1" version="1.1" viewBox="0 0 512 512" width="512px" xml:space="preserve" xmlns="http://www.w3.org/2000/svg" xmlns:xlink="http://www.w3.org/1999/xlink"><g><path clip-rule="evenodd" d="M314.545,317.328c-2.975,4.93-6.995,8.86-11.439,12.35   c-1.641,1.29-2.306,2.726-2.596,4.65c-0.984,6.42-2.095,12.82-3.18,19.226c-0.08,0.465-0.33,0.904-0.61,1.649   c-4.56-3.649-9.04-7.07-13.314-10.72c-2.186-1.87-4.045-2.36-7.085-1.585c-13.805,3.535-27.72,3.435-41.515-0.261   c-1.98-0.534-3.255-0.395-4.84,0.95c-4.67,3.965-9.535,7.71-14.725,11.87c-0.665-3.984-1.235-7.52-1.845-11.05   c-0.7-4.06-1.37-8.13-2.21-12.17c-0.16-0.78-0.965-1.485-1.585-2.115c-3.755-3.82-7.555-7.6-11.315-11.415   c-0.33-0.335-0.465-0.854-1.015-1.899C236.635,341.059,275.55,341.068,314.545,317.328z" fill-rule="evenodd"/><path clip-rule="evenodd" d="M201.51,197.438c12.575,19.295,27.375,35.47,47.655,47.141   c-6.085,2.31-11.59,4.489-17.175,6.409c-0.805,0.275-2.18-0.494-3.05-1.119c-4.79-3.445-9.5-6.995-14.81-10.936   c-0.605,5.4-1.35,10.26-1.63,15.141c-0.2,3.495-1.16,5.805-4.93,6.7c-3.115,0.744-6.07,2.165-9.46,3.42   C193.99,241.772,193.455,219.772,201.51,197.438z" fill-rule="evenodd"/><path clip-rule="evenodd" d="M310.23,197.598c8.215,22.195,7.404,44.115,3.515,66.62   c-4.37-1.635-8.525-2.995-12.465-4.819c-0.936-0.436-1.45-2.396-1.63-3.726c-0.721-5.36-1.235-10.75-1.9-16.811   c-4.689,3.506-9.01,6.53-13.09,9.855c-2.59,2.11-4.88,2.82-8.14,1.265c-4.325-2.069-8.945-3.529-13.905-5.43   C282.771,233.058,297.585,216.878,310.23,197.598z" fill-rule="evenodd"/><path clip-rule="evenodd" d="M246.71,290.128c3.09-5.314,5.885-10.12,9.185-15.795   c3.255,5.58,6.076,10.42,9.206,15.795C258.851,290.128,253.21,290.128,246.71,290.128z" fill-rule="evenodd"/><g><path clip-rule="evenodd" d="M257.585,59.587c20.255,0.54,40.325,2.11,59.681,8.815    c27.295,9.46,45.27,27.98,53.76,55.485c7.18,23.274,8.689,47.14,5.975,71.29c-0.319,2.835,0.17,3.995,3.261,3.104    c11.12-3.194,20.935,3.511,22.805,16.5c1.16,8.051-0.01,15.966-1.325,23.876c-3.359,20.234-11.18,38.475-24.385,54.274    c-4.266,5.11-9.061,9.655-14.965,12.86c-1.57,0.851-2.34,1.976-2.71,3.73c-9.811,46.59-38.79,77.185-80.995,96.58    c-18.88,8.675-37.15,5.505-54.866-3.76c-28.2-14.761-49.97-35.9-63.83-64.796c-4.14-8.63-6.9-17.729-8.6-27.13    c-0.435-2.385-1.47-3.835-3.58-5.08c-9.13-5.41-15.51-13.515-21.095-22.3c-12.19-19.17-18.305-40.205-19.04-62.851    c-0.095-2.795,0.175-5.564,0.84-8.29c2.68-10.93,11.03-16.109,22.005-13.64c3.71,0.84,3.635,0.835,3.28-2.995    c-2.375-25.9-0.475-51.285,9.865-75.485c9.82-22.985,26.635-39.085,49.555-48.815c16.655-7.069,34.185-10.149,52.195-10.819    C249.475,59.992,253.53,59.772,257.585,59.587z M255.36,193.107c-1.27-1.375-1.545-2.899-2.05-4.3    c-4.935-13.715-11.005-26.86-19.8-38.58c-6.35-8.46-13.845-15.615-23.8-19.811c-12.38-5.215-31.27-4.444-41.175,13.501    c-3.985,7.229-6.445,14.899-7.865,22.935c-3.875,21.995-3.08,44.17-2.41,66.34c0.05,1.67,1.105,4.045-0.49,4.86    c-1.76,0.895-2.63-1.715-3.99-2.65c-1.85-1.279-2.975-4.17-5.595-3.654c-6.225,1.225-10.435-1.865-14.425-5.87    c-0.83-0.835-1.67-2.44-3.085-1.69c-1.295,0.69-0.735,2.345-0.585,3.535c2.47,19.271,8.8,36.99,21.44,52.061    c2.745,3.274,5.66,6.62,10.115,7.625c6.415,1.445,9.7,5.435,10.365,11.86c0.705,6.829,1.89,13.585,4.3,20.034    c11.6,31.08,33.465,52.36,63.225,66.091c10.815,4.984,21.61,4.965,32.275-0.245c36.744-17.94,61.899-44.86,67.239-87.085    c0.575-4.575,2.735-8.48,7.391-9.61c6.305-1.535,10.625-5.5,14.53-10.19c12.229-14.689,18.045-31.97,20.199-50.685    c0.155-1.325,0.96-3.221-0.31-3.9c-1.565-0.83-2.57,1.11-3.595,2.075c-2.976,2.79-5.886,6.435-10.17,6.04    c-4.521-0.415-7.075,1.654-9.726,4.505c-0.97,1.04-2.08,2.729-3.71,1.985c-1.445-0.66-0.81-2.501-0.84-3.82    c-0.39-18.915-0.375-37.851-2.66-56.67c-1.39-11.431-3.29-22.775-8.325-33.29c-6.91-14.421-20.024-20.415-35.475-16.226    c-12.65,3.43-21.575,11.945-29.13,22.075c-8.75,11.735-14.811,24.896-19.726,38.62    C257.016,190.348,256.835,191.923,255.36,193.107z" fill-rule="evenodd"/></g><path clip-rule="evenodd" d="M503.155,222.532c-39.01,69.451-98.81,94.276-98.81,94.276   c-30.48,0-54.445-16.256-54.445-16.256l-15.32,35.58l-37.62,46.62l-40.56,18.115l-0.4,2.945l-0.4-2.945l-40.56-18.115l-37.62-46.62   l-15.325-35.58c0,0-25.075,16.256-54.44,16.256c0,0-59.8-24.825-98.811-94.276c0,0-27.865,135.146,15.325,178.336   c36.4,36.396,180.8,48.056,225.311,50.825l-0.095,0.72c0,0,2.36-0.1,6.615-0.335c4.255,0.235,6.615,0.335,6.615,0.335l-0.095-0.72   c44.51-2.77,188.91-14.43,225.31-50.825C531.021,357.679,503.155,222.532,503.155,222.532z" fill-rule="evenodd"/></g></svg>